<svg version="1.1" id="Layer_1" xmlns="http://www.w3.org/2000/svg" xmlns:xlink="http://www.w3.org/1999/xlink" viewBox="0 0 511.999 511.999" xml:space="preserve" width="64px" height="64px" fill="#000000"><g id="SVGRepo_bgCarrier" stroke-width="0"></g><g id="SVGRepo_tracerCarrier" stroke-linecap="round" stroke-linejoin="round"></g><g id="SVGRepo_iconCarrier"> <path style="fill:#FD5E95;" d="M230.593,244.109l83.395,83.395c4.588,4.588,2.508,12.421-3.752,14.128l-48.319,13.178 c-2.153,0.587-3.987,2.002-5.1,3.936l-91.941,142.693c-4.222,6.552-14.31,4.382-15.461-3.328l-15.92-106.575 c-0.255-3.559-2.716-6.573-6.151-7.536L6.173,350.074c-7.612-2.132-8.391-12.616-1.178-15.849l149.632-67.076 c1.53-0.686,2.82-1.811,3.71-3.232l46.56-74.496c4.125-6.6,14.222-4.587,15.501,3.09l7.836,47.014 C228.523,241.261,229.348,242.864,230.593,244.109z"></path> <path style="fill:#D14D7B;" d="M162.832,481.15l-15.92-106.574c-0.255-3.559-2.716-6.573-6.151-7.536L19.59,333.112 c-2.089-0.585-3.644-1.811-4.679-3.332l-9.916,4.445c-7.214,3.233-6.434,13.717,1.178,15.849l121.171,33.928 c3.435,0.962,5.896,3.977,6.151,7.536l15.92,106.575c1.151,7.71,11.239,9.882,15.461,3.328l8.642-13.412 C168.984,489.293,163.651,486.633,162.832,481.15z"></path> <g> <path style="fill:#B2325E;" d="M443.794,122.686L395.99,74.882c-3.3-3.3-3.3-8.651,0-11.951l0,0c3.3-3.3,8.65-3.3,11.951,0 l47.804,47.804c3.3,3.3,3.3,8.651,0,11.951l0,0C452.445,125.987,447.094,125.987,443.794,122.686z"></path> <path style="fill:#B2325E;" d="M461.721,104.76l-47.804-47.804c-3.3-3.3-3.3-8.651,0-11.951l0,0c3.3-3.3,8.651-3.3,11.951,0 l47.804,47.804c3.3,3.3,3.3,8.651,0,11.951l0,0C470.371,108.06,465.021,108.06,461.721,104.76z"></path> <path style="fill:#B2325E;" d="M479.647,86.833l-47.803-47.804c-3.3-3.3-3.3-8.651,0-11.951l0,0c3.3-3.3,8.651-3.3,11.951,0 l47.804,47.804c3.3,3.3,3.3,8.65,0,11.951l0,0C488.298,90.133,482.948,90.133,479.647,86.833z"></path> <path style="fill:#B2325E;" d="M497.573,68.907L449.77,21.104c-3.3-3.3-3.3-8.651,0-11.951l0,0c3.3-3.3,8.651-3.3,11.951,0 l47.804,47.804c3.3,3.3,3.3,8.651,0,11.951l0,0C506.224,72.207,500.873,72.207,497.573,68.907z"></path> </g> <path style="fill:#64666D;" d="M240.629,313.9l-35.853-35.853L468.747,14.077c2.72-2.72,7.129-2.72,9.849,0l26.004,26.004 c2.72,2.72,2.72,7.129,0,9.849L240.629,313.9z"></path> <path style="fill:#FD5E95;" d="M437.818,116.711l66.781-66.78c2.72-2.72,2.72-7.129,0-9.849l-26.004-26.004 c-2.72-2.72-7.129-2.72-9.849,0l-66.78,66.78L437.818,116.711z"></path> <g> <path style="fill:#E9E9EA;" d="M222.703,343.777L174.9,295.974c-3.3-3.3-3.3-8.651,0-11.951l23.901-23.901 c3.3-3.3,8.651-3.3,11.951,0l47.804,47.804c3.3,3.3,3.3,8.651,0,11.951l-23.901,23.901 C231.353,347.077,226.003,347.077,222.703,343.777z"></path> <path style="fill:#E9E9EA;" d="M174.9,391.581l-47.804-47.804c-3.3-3.3-3.3-8.651,0-11.951l23.901-23.901 c3.3-3.3,8.651-3.3,11.951,0l47.804,47.804c3.3,3.3,3.3,8.651,0,11.951l-23.901,23.901 C183.55,394.881,178.199,394.881,174.9,391.581z"></path> </g> <g> <circle style="fill:#4E5058;" cx="186.852" cy="415.481" r="8.451"></circle> <circle style="fill:#4E5058;" cx="168.926" cy="433.407" r="8.451"></circle> <circle style="fill:#4E5058;" cx="162.947" cy="403.534" r="8.451"></circle> </g> <g> <rect x="221.258" y="263.622" transform="matrix(-0.7071 -0.7071 0.7071 -0.7071 228.6046 638.8364)" style="fill:#383A43;" width="50.703" height="16.901"></rect> <rect x="251.132" y="233.742" transform="matrix(-0.7071 -0.7071 0.7071 -0.7071 300.7302 608.9514)" style="fill:#383A43;" width="50.703" height="16.901"></rect> <rect x="281.005" y="203.866" transform="matrix(-0.7071 -0.7071 0.7071 -0.7071 372.8527 579.0739)" style="fill:#383A43;" width="50.703" height="16.901"></rect> <rect x="310.889" y="173.986" transform="matrix(-0.7071 -0.7071 0.7071 -0.7071 444.9962 549.1964)" style="fill:#383A43;" width="50.703" height="16.901"></rect> <rect x="340.755" y="144.103" transform="matrix(-0.7071 -0.7071 0.7071 -0.7071 517.1112 519.3008)" style="fill:#383A43;" width="50.703" height="16.901"></rect> <rect x="370.646" y="114.23" transform="matrix(-0.7071 -0.7071 0.7071 -0.7071 589.2622 489.4414)" style="fill:#383A43;" width="50.703" height="16.901"></rect> </g> <g> <path style="fill:#909296;" d="M228.678,322.351c-2.162,0-4.326-0.825-5.976-2.475l-23.901-23.901c-3.301-3.3-3.301-8.65,0-11.95 c3.3-3.3,8.65-3.3,11.95,0l23.901,23.901c3.301,3.3,3.301,8.65,0,11.95C233.003,321.526,230.841,322.351,228.678,322.351z"></path> <path style="fill:#909296;" d="M180.875,370.155c-2.162,0-4.326-0.825-5.976-2.475l-23.901-23.901c-3.301-3.3-3.301-8.65,0-11.95 c3.3-3.3,8.65-3.3,11.95,0l23.901,23.901c3.301,3.3,3.301,8.65,0,11.95C185.2,369.329,183.037,370.155,180.875,370.155z"></path> </g> </g></svg>